<svg xmlns="http://www.w3.org/2000/svg" width="134.191" height="108.785" viewBox="0 0 134.191 108.785">
  <g id="call-to-action-scroll" transform="translate(134.191 108.785) rotate(180)">
    <path id="arrow-1"  d="M63.1,3.557a6,6,0,0,1,7.983,0L122.43,49.305a6,6,0,0,1-3.992,10.48H15.753a6,6,0,0,1-3.992-10.48Z" fill="#fff"/>
    <path id="arrow-1"  d="M63.1,3.557a6,6,0,0,1,7.983,0L122.43,49.305a6,6,0,0,1-3.992,10.48H15.753a6,6,0,0,1-3.992-10.48Z" transform="translate(0 17)" fill="#49044b"/>
    <path id="arrow-2"  d="M63.1,3.557a6,6,0,0,1,7.983,0L122.43,49.305a6,6,0,0,1-3.992,10.48H15.753a6,6,0,0,1-3.992-10.48Z" transform="translate(0 33)" fill="#fff"/>
    <path id="arrow-2"  d="M53.363,1.52a6,6,0,0,1,7.983,0L112.69,47.269a6,6,0,0,1-3.992,10.48H6.012A6,6,0,0,1,2.02,47.269Z" transform="translate(9.741 51.036)" fill="#49044b"/>
  </g>
</svg>
