<svg xmlns="http://www.w3.org/2000/svg" width="114.723" height="90.748" viewBox="0 0 114.723 90.748">
  <g id="call-to-action-scroll" transform="translate(124.457 92.785) rotate(180)">
    <path id="Subtraction_2" d="M-3428.826-946.43h-3.326a5.883,5.883,0,0,1-5.607-3.865,5.882,5.882,0,0,1,1.616-6.615l51.343-45.749a6,6,0,0,1,3.992-1.52,5.994,5.994,0,0,1,3.991,1.52l51.343,45.749a5.883,5.883,0,0,1,1.615,6.616,5.882,5.882,0,0,1-5.607,3.864h-3.326l-44.025-39.228a5.994,5.994,0,0,0-3.991-1.52,6,6,0,0,0-3.992,1.52l-44.025,39.228Z" transform="translate(3447.905 1006.215)" fill="#fff"/>
    <path id="Subtraction_1" d="M-3402.948-832.43h-2.2a5.883,5.883,0,0,1-5.607-3.864,5.883,5.883,0,0,1,1.616-6.615l51.343-45.748a5.993,5.993,0,0,1,3.992-1.521,5.992,5.992,0,0,1,3.991,1.521l51.343,45.748a5.884,5.884,0,0,1,1.615,6.616,5.882,5.882,0,0,1-5.606,3.864h-2.2l-45.147-40.228a5.994,5.994,0,0,0-3.991-1.52,6,6,0,0,0-3.992,1.52l-45.147,40.228Z" transform="translate(3420.905 925.215)" fill="#fff"/>
  </g>
</svg>
