<svg xmlns="http://www.w3.org/2000/svg" width="134.191" height="108.785" viewBox="0 0 134.191 108.785">
  <g id="call-to-action-scroll" transform="translate(1036.361 1324.598) rotate(180)">
    <path id="Polygon_1" data-name="Polygon 1" d="M63.1,3.557a6,6,0,0,1,7.983,0L122.43,49.305a6,6,0,0,1-3.992,10.48H15.753a6,6,0,0,1-3.992-10.48Z" transform="translate(902.169 1215.813)" fill="#fff"/>
    <path id="Path_2" data-name="Path 2" d="M63.1,3.557a6,6,0,0,1,7.983,0L122.43,49.305a6,6,0,0,1-3.992,10.48H15.753a6,6,0,0,1-3.992-10.48Z" transform="translate(902.169 1232.813)" fill="#930095"/>
    <path id="Polygon_3" data-name="Polygon 3" d="M63.1,3.557a6,6,0,0,1,7.983,0L122.43,49.305a6,6,0,0,1-3.992,10.48H15.753a6,6,0,0,1-3.992-10.48Z" transform="translate(902.169 1248.813)" fill="#fff"/>
    <path id="Path_1" data-name="Path 1" d="M63.1,3.557a6,6,0,0,1,7.983,0L122.43,49.305a6,6,0,0,1-3.992,10.48H15.753a6,6,0,0,1-3.992-10.48Z" transform="translate(902.169 1264.813)" fill="#8e0091"/>
  </g>
</svg>
