<svg xmlns="http://www.w3.org/2000/svg" width="3498" height="4087.259" viewBox="0 0 3498 4087.259">
  <g id="background-images" transform="translate(789 -3369.741)">
    <g id="stars" transform="translate(2887.103 5961.648) rotate(150)">
      <circle id="Ellipse_9" data-name="Ellipse 9" cx="2" cy="2" r="2" transform="translate(1227.583 2596.008) rotate(130)" fill="#fff"/>
      <circle id="Ellipse_17" data-name="Ellipse 17" cx="2" cy="2" r="2" transform="translate(1354.678 2572.112) rotate(130)" fill="#fff"/>
      <circle id="Ellipse_14" data-name="Ellipse 14" cx="2" cy="2" r="2" transform="translate(1771.342 2336.913) rotate(130)" fill="#fff"/>
      <circle id="Ellipse_12" data-name="Ellipse 12" cx="2" cy="2" r="2" transform="translate(1147.035 2486.647) rotate(130)" fill="#fff"/>
      <circle id="Ellipse_16" data-name="Ellipse 16" cx="2" cy="2" r="2" transform="translate(1062.416 2557.933) rotate(130)" fill="#fff"/>
      <circle id="Ellipse_18" data-name="Ellipse 18" cx="2" cy="2" r="2" transform="translate(906.092 3083.381) rotate(130)" fill="#fff"/>
      <circle id="Ellipse_19" data-name="Ellipse 19" cx="2" cy="2" r="2" transform="translate(810.974 3456.544) rotate(130)" fill="#fff"/>
      <circle id="Ellipse_11" data-name="Ellipse 11" cx="2" cy="2" r="2" transform="translate(789.937 2826.655) rotate(130)" fill="#fff"/>
      <circle id="Ellipse_13" data-name="Ellipse 13" cx="2" cy="2" r="2" transform="translate(1291.637 2963.053) rotate(130)" fill="#fff"/>
      <circle id="Ellipse_10" data-name="Ellipse 10" cx="2" cy="2" r="2" transform="translate(1017.53 2353.176) rotate(130)" fill="#fff"/>
      <circle id="Ellipse_15" data-name="Ellipse 15" cx="2" cy="2" r="2" transform="translate(1072.39 1957.982) rotate(130)" fill="#fff"/>
      <circle id="Ellipse_9-2" data-name="Ellipse 9" cx="2" cy="2" r="2" transform="translate(476.717 2711.564) rotate(-127)" fill="#fff"/>
      <circle id="Ellipse_17-2" data-name="Ellipse 17" cx="2" cy="2" r="2" transform="translate(471.41 2840.776) rotate(-127)" fill="#fff"/>
      <circle id="Ellipse_14-2" data-name="Ellipse 14" cx="2" cy="2" r="2" transform="translate(606.853 3299.67) rotate(-127)" fill="#fff"/>
      <circle id="Ellipse_16-2" data-name="Ellipse 16" cx="2" cy="2" r="2" transform="translate(550.971 2559.195) rotate(-127)" fill="#fff"/>
      <circle id="Ellipse_18-2" data-name="Ellipse 18" cx="2" cy="2" r="2" transform="translate(74.156 2288.677) rotate(-127)" fill="#fff"/>
      <circle id="Ellipse_19-2" data-name="Ellipse 19" cx="2" cy="2" r="2" transform="translate(-268.046 2112.053) rotate(-127)" fill="#fff"/>
      <circle id="Ellipse_11-2" data-name="Ellipse 11" cx="2" cy="2" r="2" transform="translate(350.431 2233.25) rotate(-127)" fill="#fff"/>
      <circle id="Ellipse_13-2" data-name="Ellipse 13" cx="2" cy="2" r="2" transform="translate(104.67 2691.409) rotate(-127)" fill="#fff"/>
      <circle id="Ellipse_10-2" data-name="Ellipse 10" cx="2" cy="2" r="2" transform="translate(760.577 2561.519) rotate(-127)" fill="#fff"/>
      <circle id="Ellipse_15-2" data-name="Ellipse 15" cx="2" cy="2" r="2" transform="translate(1133.301 2703.873) rotate(-127)" fill="#fff"/>
    </g>
    <g id="Ellipse_20" data-name="Ellipse 20" transform="translate(-789 3959)" fill="#fff" stroke="#707070" stroke-width="1">
      <circle cx="1749" cy="1749" r="1749" stroke="none"/>
      <circle cx="1749" cy="1749" r="1748.5" fill="none"/>
    </g>
  </g>
</svg>
