<svg class="call-to-action-scroll" xmlns="http://www.w3.org/2000/svg" width="114.723" height="90.749" viewBox="0 0 114.723 90.749">
    <g id="call-to-action-scroll" transform="translate(-911.904 -1217.849)">
        <path id="Subtraction_4"
              d="M-2499.656-3024.009h-3.327a5.882,5.882,0,0,1-5.606-3.864,5.883,5.883,0,0,1,1.616-6.615l51.342-45.749a6,6,0,0,1,3.992-1.52,5.992,5.992,0,0,1,3.991,1.52l51.343,45.749a5.882,5.882,0,0,1,1.615,6.615,5.883,5.883,0,0,1-5.607,3.865h-3.326l-44.025-39.228a5.99,5.99,0,0,0-3.991-1.521,5.993,5.993,0,0,0-3.992,1.521l-44.025,39.228Z"
              transform="translate(3420.904 4299.607)"/>
        <path id="Subtraction_3"
              d="M-2500.779-3024.009h-2.2a5.882,5.882,0,0,1-5.606-3.864,5.883,5.883,0,0,1,1.616-6.615l51.342-45.749a6,6,0,0,1,3.992-1.52,5.992,5.992,0,0,1,3.991,1.52l51.343,45.749a5.882,5.882,0,0,1,1.615,6.615,5.883,5.883,0,0,1-5.607,3.865h-2.2l-45.148-40.228a5.991,5.991,0,0,0-3.991-1.521,5.993,5.993,0,0,0-3.992,1.521l-45.148,40.228Z"
              transform="translate(3420.904 4332.607)"/>
    </g>
</svg>
