<svg xmlns="http://www.w3.org/2000/svg" width="134.191" height="108.785" viewBox="0 0 134.191 108.785">
  <g id="call-to-action-scroll" transform="translate(-902.169 -1215.813)">
    <path id="Polygon_1" d="M63.1,3.557a6,6,0,0,1,7.983,0L122.43,49.305a6,6,0,0,1-3.992,10.48H15.753a6,6,0,0,1-3.992-10.48Z" transform="translate(902.169 1215.813)"/>
    <path id="Path_2" d="M63.1,3.557a6,6,0,0,1,7.983,0L122.43,49.305a6,6,0,0,1-3.992,10.48H15.753a6,6,0,0,1-3.992-10.48Z" transform="translate(902.169 1232.813)" fill="#fff"/>
    <path id="Polygon_3" d="M63.1,3.557a6,6,0,0,1,7.983,0L122.43,49.305a6,6,0,0,1-3.992,10.48H15.753a6,6,0,0,1-3.992-10.48Z" transform="translate(902.169 1248.813)"/>
    <path id="Path_1" d="M63.1,3.557a6,6,0,0,1,7.983,0L122.43,49.305a6,6,0,0,1-3.992,10.48H15.753a6,6,0,0,1-3.992-10.48Z" transform="translate(902.169 1264.813)" fill="#fff"/>
  </g>
</svg>
