<svg xmlns="http://www.w3.org/2000/svg" width="64" height="64" viewBox="0 0 64 64">
  <g id="linkedin-logo" transform="translate(-98)">
    <path id="Path_3" d="M60.6,0H3.4A3.4,3.4,0,0,0,0,3.4V60.6A3.4,3.4,0,0,0,3.4,64H60.6A3.4,3.4,0,0,0,64,60.6V3.4A3.4,3.4,0,0,0,60.6,0ZM17.984,57.328H7.466V23.491H17.983V57.328ZM12.727,18.866a6.1,6.1,0,1,1,6.094-6.1A6.1,6.1,0,0,1,12.727,18.866ZM57.373,57.328H46.864V40.874c0-3.924-.071-8.972-5.467-8.972-5.469,0-6.31,4.274-6.31,8.687V57.328H24.578V23.491H34.666v4.623h.141a11.053,11.053,0,0,1,9.95-5.465c10.649,0,12.615,7.009,12.615,16.118V57.328Z" transform="translate(98)"/>
  </g>
</svg>
